<svg width="60" height="70" viewBox="0 0 60 70" fill="none" xmlns="http://www.w3.org/2000/svg">
<rect width="60" height="60" rx="5" fill="#289FAB"/>
<path fill-rule="evenodd" clip-rule="evenodd" d="M30 10C38.375 10 46 16.968 46 25.68C46 31.296 41 40 30 48C19 40 14 31.296 14 25.68C14 16.968 21.625 10 30 10ZM50 25.68C50 13.728 40.5 6 30 6C19.5 6 10 13.728 10 25.68C10 33.648 16.675 43.08 30 54C43.325 43.08 50 33.648 50 25.68ZM39.2257 15.2615C38.9591 14.524 38.2124 13.999 37.3324 13.999H22.6657C21.7857 13.999 21.0524 14.524 20.7724 15.2615L17.999 22.5705V32.749C17.999 33.4366 18.599 33.9991 19.3324 33.9991H20.6657C21.399 33.9991 21.9991 33.4366 21.9991 32.749V31.499H37.9991V32.749C37.9991 33.4366 38.5991 33.9991 39.3324 33.9991H40.6657C41.3991 33.9991 41.9991 33.4366 41.9991 32.749V22.749L39.2257 15.2615ZM23.9991 16.8562H35.9991L37.3324 19.7133H22.4991L23.9991 16.8562ZM38.9991 28.2848H20.9991V22.5705H38.9991V28.2848ZM24.0561 27.3026C25.1607 27.3026 26.0561 26.4632 26.0561 25.4276C26.0561 24.3921 25.1607 23.5526 24.0561 23.5526C22.9515 23.5526 22.0561 24.3921 22.0561 25.4276C22.0561 26.4632 22.9515 27.3026 24.0561 27.3026ZM38.0561 25.4276C38.0561 26.4632 37.1607 27.3026 36.0561 27.3026C34.9515 27.3026 34.0561 26.4632 34.0561 25.4276C34.0561 24.3921 34.9515 23.5526 36.0561 23.5526C37.1607 23.5526 38.0561 24.3921 38.0561 25.4276Z" fill="#FEFEFE"/>
<path d="M30 70L23.9378 59.5H36.0622L30 70Z" fill="#289FAB"/>
</svg>
