<svg width="205" height="242" viewBox="0 0 205 242" fill="none" xmlns="http://www.w3.org/2000/svg">
<path d="M0 30.2271C0 13.5331 13.4315 0 30 0H175C191.569 0 205 13.5331 205 30.2271V176.325C205 193.019 191.569 206.552 175 206.552H30C13.4315 206.552 0 193.019 0 176.325V30.2271Z" fill="#289FAB"/>
<path d="M97.8815 239.819C99.8685 242.727 104.131 242.727 106.119 239.819L128.847 206.552H75.1532L97.8815 239.819Z" fill="#289FAB"/>
<path d="M13 38.7297C13 23.9673 24.728 12 39.1951 12H165.805C180.272 12 192 23.9673 192 38.7297V167.923C192 182.686 180.272 194.653 165.805 194.653H39.1951C24.728 194.653 13 182.686 13 167.923V38.7297Z" fill="#289FAB"/>
<path d="M98.4672 224.071C100.202 226.643 103.925 226.643 105.66 224.071L125.505 194.653H78.6216L98.4672 224.071Z" fill="#289FAB"/>
<path fill-rule="evenodd" clip-rule="evenodd" d="M127.632 198.653H165.805C182.557 198.653 196 184.818 196 167.923V38.7297C196 21.8347 182.557 8 165.805 8H39.1951C22.443 8 9 21.8347 9 38.7297V167.923C9 184.818 22.443 198.653 39.1951 198.653H76.4949L95.1513 226.308C98.4721 231.231 105.655 231.231 108.976 226.308L127.632 198.653ZM125.505 194.653L105.66 224.071C103.925 226.643 100.202 226.643 98.4672 224.071L78.6216 194.653H39.1951C24.728 194.653 13 182.686 13 167.923V38.7297C13 23.9673 24.728 12 39.1951 12H165.805C180.272 12 192 23.9673 192 38.7297V167.923C192 182.686 180.272 194.653 165.805 194.653H125.505Z" fill="white"/>
<path d="M57.25 148.292V155.833C57.25 157.97 56.5273 159.761 55.0818 161.207C53.6363 162.652 51.8451 163.375 49.7083 163.375H42.1667C40.0299 163.375 38.2387 162.652 36.7932 161.207C35.3477 159.761 34.625 157.97 34.625 155.833V95.5L50.4625 50.25C51.2167 47.9875 52.5679 46.1649 54.5161 44.7823C56.4644 43.3996 58.6326 42.7083 61.0208 42.7083H143.979C146.367 42.7083 148.536 43.3996 150.484 44.7823C152.432 46.1649 153.783 47.9875 154.538 50.25L170.375 95.5V155.833C170.375 157.97 169.652 159.761 168.207 161.207C166.761 162.652 164.97 163.375 162.833 163.375H155.292C153.155 163.375 151.364 162.652 149.918 161.207C148.473 159.761 147.75 157.97 147.75 155.833V148.292H57.25ZM55.7417 80.4167H149.258L141.34 57.7917H63.6604L55.7417 80.4167ZM68.5625 125.667C71.7049 125.667 74.3759 124.567 76.5755 122.367C78.7752 120.168 79.875 117.497 79.875 114.354C79.875 111.212 78.7752 108.541 76.5755 106.341C74.3759 104.141 71.7049 103.042 68.5625 103.042C65.4201 103.042 62.7491 104.141 60.5495 106.341C58.3498 108.541 57.25 111.212 57.25 114.354C57.25 117.497 58.3498 120.168 60.5495 122.367C62.7491 124.567 65.4201 125.667 68.5625 125.667ZM136.437 125.667C139.58 125.667 142.251 124.567 144.451 122.367C146.65 120.168 147.75 117.497 147.75 114.354C147.75 111.212 146.65 108.541 144.451 106.341C142.251 104.141 139.58 103.042 136.437 103.042C133.295 103.042 130.624 104.141 128.424 106.341C126.225 108.541 125.125 111.212 125.125 114.354C125.125 117.497 126.225 120.168 128.424 122.367C130.624 124.567 133.295 125.667 136.437 125.667ZM49.7083 133.208H155.292V95.5H49.7083V133.208Z" fill="white"/>
</svg>
